REM DIRINDEX 1\2,1\4,1\3\5,1\3\6,1\3\7
REM DIRNAME cjc081,folder01,folder02,folder03,folder04,folder05,folder06
TITLE ""
FILE "CD1Track30.mp3" MP3
  TRACK 01 AUDIO
    TITLE "0:"
    INDEX 01 00:00:00
  TRACK 02 AUDIO
    TITLE "5:cjc081_0509"
    INDEX 01 00:00:25
  TRACK 03 AUDIO
    TITLE "0:"
    INDEX 01 00:02:34
  TRACK 04 AUDIO
    TITLE "6:cjc081_0510"
    INDEX 01 00:03:06
  TRACK 05 AUDIO
    TITLE "0:"
    INDEX 01 00:05:14
  TRACK 06 AUDIO
    TITLE "5:cjc081_0511"
    INDEX 01 00:05:59
  TRACK 07 AUDIO
    TITLE "0:"
    INDEX 01 00:07:09
  TRACK 08 AUDIO
    TITLE "6:cjc081_0512"
    INDEX 01 00:07:58
  TRACK 09 AUDIO
    TITLE "0:"
    INDEX 01 00:09:10
  TRACK 10 AUDIO
    TITLE "5:cjc081_0513"
    INDEX 01 00:09:55
  TRACK 11 AUDIO
    TITLE "0:"
    INDEX 01 00:12:48
  TRACK 12 AUDIO
    TITLE "6:cjc081_0514"
    INDEX 01 00:13:20
  TRACK 13 AUDIO
    TITLE "0:"
    INDEX 01 00:15:48
  TRACK 14 AUDIO
    TITLE "5:cjc081_0515"
    INDEX 01 00:16:18
  TRACK 15 AUDIO
    TITLE "0:"
    INDEX 01 00:17:74
  TRACK 16 AUDIO
    TITLE "6:cjc081_0516"
    INDEX 01 00:18:42
  TRACK 17 AUDIO
    TITLE "0:"
    INDEX 01 00:20:57
  TRACK 18 AUDIO
    TITLE "5:cjc081_0517"
    INDEX 01 00:21:25
  TRACK 19 AUDIO
    TITLE "0:"
    INDEX 01 00:22:54
  TRACK 20 AUDIO
    TITLE "6:cjc081_0518"
    INDEX 01 00:23:24
  TRACK 21 AUDIO
    TITLE "0:"
    INDEX 01 00:25:27
  TRACK 22 AUDIO
    TITLE "5:cjc081_0519"
    INDEX 01 00:25:68
  TRACK 23 AUDIO
    TITLE "0:"
    INDEX 01 00:27:12
  TRACK 24 AUDIO
    TITLE "6:cjc081_0520"
    INDEX 01 00:27:63
  TRACK 25 AUDIO
    TITLE "0:"
    INDEX 01 00:29:50
  TRACK 26 AUDIO
    TITLE "5:cjc081_0521"
    INDEX 01 00:30:20
  TRACK 27 AUDIO
    TITLE "0:"
    INDEX 01 00:31:22
  TRACK 28 AUDIO
    TITLE "6:cjc081_0522"
    INDEX 01 00:32:00
  TRACK 29 AUDIO
    TITLE "0:"
    INDEX 01 00:33:46
  TRACK 30 AUDIO
    TITLE "5:cjc081_0523"
    INDEX 01 00:34:14
  TRACK 31 AUDIO
    TITLE "0:"
    INDEX 01 00:35:31
  TRACK 32 AUDIO
    TITLE "6:cjc081_0524"
    INDEX 01 00:36:03
  TRACK 33 AUDIO
    TITLE "0:"
    INDEX 01 00:37:16
  TRACK 34 AUDIO
    TITLE "5:cjc081_0525"
    INDEX 01 00:37:63
  TRACK 35 AUDIO
    TITLE "0:"
    INDEX 01 00:39:07
  TRACK 36 AUDIO
    TITLE "6:cjc081_0526"
    INDEX 01 00:39:58
  TRACK 37 AUDIO
    TITLE "0:"
    INDEX 01 00:41:16
  TRACK 38 AUDIO
    TITLE "5:cjc081_0527"
    INDEX 01 00:41:61
  TRACK 39 AUDIO
    TITLE "0:"
    INDEX 01 00:43:35
  TRACK 40 AUDIO
    TITLE "6:cjc081_0528"
    INDEX 01 00:44:07
  TRACK 41 AUDIO
    TITLE "0:"
    INDEX 01 00:45:65
  TRACK 42 AUDIO
    TITLE "5:cjc081_0529"
    INDEX 01 00:46:31
  TRACK 43 AUDIO
    TITLE "0:"
    INDEX 01 00:47:38
  TRACK 44 AUDIO
    TITLE "6:cjc081_0530"
    INDEX 01 00:48:10
  TRACK 45 AUDIO
    TITLE "0:"
    INDEX 01 00:49:63
  TRACK 46 AUDIO
    TITLE "5:cjc081_0531"
    INDEX 01 00:50:37
  TRACK 47 AUDIO
    TITLE "0:"
    INDEX 01 00:51:60
  TRACK 48 AUDIO
    TITLE "6:cjc081_0532"
    INDEX 01 00:52:30
  TRACK 49 AUDIO
    TITLE "0:"
    INDEX 01 00:53:37
  TRACK 50 AUDIO
    TITLE "5:cjc081_0533"
    INDEX 01 00:54:05
  TRACK 51 AUDIO
    TITLE "0:"
    INDEX 01 00:55:24
  TRACK 52 AUDIO
    TITLE "6:cjc081_0534"
    INDEX 01 00:55:71
  TRACK 53 AUDIO
    TITLE "0:"
    INDEX 01 00:57:54
  TRACK 54 AUDIO
    TITLE "5:cjc081_0535"
    INDEX 01 00:58:22
  TRACK 55 AUDIO
    TITLE "0:"
    INDEX 01 00:59:69
  TRACK 56 AUDIO
    TITLE "6:cjc081_0536"
    INDEX 01 01:00:35
  TRACK 57 AUDIO
    TITLE "0:"
    INDEX 01 01:02:01
  TRACK 58 AUDIO
    TITLE "5:cjc081_0537"
    INDEX 01 01:02:46
  TRACK 59 AUDIO
    TITLE "0:"
    INDEX 01 01:03:55
  TRACK 60 AUDIO
    TITLE "6:cjc081_0538"
    INDEX 01 01:04:23
  TRACK 61 AUDIO
    TITLE "0:"
    INDEX 01 01:05:40
  TRACK 62 AUDIO
    TITLE "7:cjc081_0539"
    INDEX 01 01:07:02
  TRACK 63 AUDIO
    TITLE "0:"
    INDEX 01 01:18:07
